<?xml version="1.0" encoding="UTF-8"?>
<svg xmlns="http://www.w3.org/2000/svg" version="1.1" viewBox="0 0 1366 768">
  <defs>
    <style>
      .cls-1 {
        fill: #9f5ea3;
      }

      .cls-2 {
        fill: #f7f7fa;
      }

      .cls-3 {
        fill: #e3dfea;
      }

      .cls-4 {
        fill: #f8eccf;
      }

      .cls-5 {
        fill: #e2b441;
      }

      .cls-6 {
        fill: #7c4c7c;
      }

      .cls-7 {
        fill: #505c88;
      }

      .cls-8 {
        fill: #dba111;
      }

      .cls-9 {
        fill: #e9c770;
      }

      .cls-10 {
        fill: #8895c4;
      }

      .cls-11 {
        fill: #a6afd3;
      }

      .cls-12 {
        fill: #fdfcf3;
      }

      .cls-13 {
        fill: #ba80be;
      }

      .cls-14 {
        fill: #fdf0ee;
      }

      .cls-15 {
        fill: #f2f1f6;
      }

      .cls-16 {
        fill: #6a7ab5;
      }

      .cls-17 {
        fill: #f1d9a0;
      }

      .cls-18 {
        fill: #c3cae1;
      }

      .cls-19 {
        fill: #daabdc;
      }

      .cls-20 {
        fill: #a363a9;
      }

      .cls-21 {
        fill: #fda096;
      }

      .cls-22 {
        fill: #e1e4f0;
      }

      .cls-23 {
        fill: #e9e7ef;
      }

      .cls-24 {
        fill: #e8b2a6;
      }

      .cls-25 {
        fill: #353d5b;
      }
    </style>
  </defs>
  <!-- Generator: Adobe Illustrator 28.7.3, SVG Export Plug-In . SVG Version: 1.2.0 Build 164)  -->
  <g>
    <g id="Layer_1">
      <path class="cls-5" d="M702.99,558.92c-2.57,4.06-5.13,8.12-7.7,12.19-2.1,1.47-4.11,3.09-6.33,4.36-2.36,1.35-5.25,3.78-7.3,3.28-8.12-2.01-16.9,1.52-24.62-3.15-.91-.55-2.25-.42-3.39-.59-8.88-1.33-17.81-2.41-26.63-4.07-7.74-1.46-15.36-3.6-23.03-5.41-1.12-.26-2.34-.65-3.42-.46-6.22,1.1-11.79-.19-16.77-4.1-.62-.49-1.76-1.06-2.27-.81-4.96,2.43-9.42,0-14.08-1.1-5.73-1.35-11.56-2.29-17.32-3.54-3.01-.65-5.94-1.7-8.96-2.33-2.73-.57-5.54-.79-8.31-1.24-1.45-.23-2.88-.66-4.32-.93-10.38-1.97-21.34-.77-31.19-5.7-.56-.28-1.3-.19-1.95-.3-7.21-1.19-14.41-2.45-21.63-3.56-3.26-.5-6.64-.36-9.84-1.07-7.48-1.64-14.86-3.7-22.32-5.4-3.85-.88-7.81-1.24-11.68-2.04-9.85-2.04-19.7-4.05-29.49-6.36-4.79-1.14-7.6-4.34-7.44-9.58.41-.51.72-1.23,1.25-1.49,7.23-3.49,14.33-7.33,21.79-10.24,6.77-2.64,13.95-4.23,20.94-6.29.04,6.34,1.3,7.99,5.49,7.76,5.95-.33,11.83-.2,17.03,3.45,1.19.84,2.68,1.54,4.11,1.69,4.76.51,9.54.96,14.32,1.02,3.02.03,6.02,1.02,8.58,1.22,5.13.39,8.95,2.35,13.01,4.74.71.42,2.04-.22,2.51-.29v-4.89c1.54.22,3.22.11,4.58.72,4.36,1.96,10.7,3.18,15.5,2.64.16-.02.33-.02.5-.01,7.2.34,14.4.54,21.58,1.1,2.94.23,5.79,1.65,8.73,1.81,16.52.92,31.89,6.5,47.5,11.21,5.44,1.64,10.73,7.13,16.67.87.7.67,1.47,1.04,1.58,1.56,1.51,6.73,5.59,6.85,11.56,5.89,3.74-.6,8.88.16,10.88,5.27.99,2.54,2.5,2.97,4.46.93.75-.78,1.42-1.65,2.42-2.82.94,1.49,1.37,3.08,2.34,3.55,2.66,1.3,6.81,3.83,8.13,2.86,5.85-4.33,9.73-.26,14.3,1.91,1.73.82,3.86.81,5.81,1.14,3.09.52,6.24.8,9.27,1.56,2.83.71,5.54,1.92,8.31,2.91.61-2.25,1.23-4.5,1.84-6.75,2.18.77,4.37,1.54,6.3,2.22-.54,2.74-.92,4.71-1.31,6.68Z"/>
      <path class="cls-8" d="M632,616.81c-25.16,7.6-50.29,15.31-75.49,22.77-14.96,4.43-30.07,8.69-45.87,8.08-26.12-1.01-49.74-9.6-69.9-26.21-13.38-11.01-24.08-24.52-31.03-40.66-.77-1.79-1.22-3.72-1.82-5.59.19-1.26.37-2.51.57-3.86,7.12,1.45,13.89,2.77,20.64,4.22,6.6,1.41,13.16,3.01,19.76,4.42,7.38,1.57,14.79,2.97,22.17,4.52,5.24,1.1,10.44,2.42,15.7,3.47,3.38.67,6.87.85,10.24,1.56,6.61,1.38,13.12,3.21,19.76,4.41,9.07,1.63,18.28,2.56,27.33,4.31,9.86,1.91,19.56,4.7,29.42,6.58,9.55,1.82,19.26,2.81,28.84,4.49,10.47,1.83,20.88,4.03,30.8,5.97.11-.15-.51.69-1.13,1.53Z"/>
      <path class="cls-25" d="M935.01,325.93c11.79,7.47,17.85,18.34,17.97,32.14.23,28.48.06,56.95.06,85.43,0,17.48-.1,34.96.02,52.44.15,22.35-16.92,40.03-39.16,40.08-26.96.07-53.93-.06-80.89-.1-.66,0-1.32,0-1.98,0-.97-.05-1.95-.09-2.92-.14-2.34-1.61-4.68-3.22-7.02-4.83-1.38-1.96-2.75-3.93-4.13-5.9.17-.71.64-1.52.45-2.12-2.15-6.7-1.73-8.39,4.84-9.31,6.69-.94,13.79.54,19.61-4.31.09-.08.33.05.49.01,3.3-.64,6.65-1.09,9.88-1.98,4.7-1.29,9.36-2.77,13.95-4.43,2.6-.94,5.61-1.85,7.39-3.75,4.91-5.25,5.03-5.31,11.09-1.25,2.02,1.35,4.89,1.44,7.37,2.11,1.33.67,2.7,1.27,3.98,2.03,12.58,7.38,25.39-.19,29.74-10.65,2.59-6.22,1.13-12.29-.83-18.32,1.47-3.12-.12-4.43-2.95-5.02l-.03.03c-.81-1.37-1.36-3.04-2.49-4.06-3.92-3.54-4.05-7.22-1.22-11.47,1.45-2.19,2.38-4.72,3.77-6.95,1.29-2.06,3.11-3.8,4.3-5.91.93-1.64,1.42-3.59,1.77-5.46.19-1.02-.7-2.28-.44-3.25,1.65-6.03,3.65-11.96,5.24-18,1.53-5.81,2.72-11.71,4.02-17.58.09-.43-.35-.95-.34-1.43.12-5.84.08-11.7.5-17.53.41-5.71,1.62-11.38,1.92-17.09.35-6.63-.18-13.31.17-19.94.24-4.73.66-9.14-4.78-11.36-.31-.13-.22-1.24-.32-1.89.34-.08.68-.15,1.02-.23Z"/>
      <path class="cls-5" d="M632,616.81c.62-.84,1.24-1.68,1.13-1.53-9.92-1.94-20.33-4.14-30.8-5.97-9.58-1.68-19.29-2.66-28.84-4.49-9.87-1.89-19.56-4.67-29.42-6.58-9.05-1.75-18.25-2.68-27.33-4.31-6.63-1.19-13.15-3.03-19.76-4.41-3.38-.7-6.86-.89-10.24-1.56-5.25-1.05-10.45-2.37-15.7-3.47-7.38-1.55-14.8-2.95-22.17-4.52-6.6-1.4-13.16-3-19.76-4.42-6.75-1.45-13.53-2.77-20.64-4.22-.2,1.34-.38,2.6-.57,3.86-1.55-3.77-3.38-7.46-4.59-11.34-2.55-8.23-4.77-16.57-7.12-24.86,3,1.29,5.89,3.05,9.02,3.78,6.27,1.45,12.69,2.24,19.02,3.47,20.25,3.93,40.51,7.85,60.73,11.94,13.9,2.81,27.71,6.06,41.62,8.84,9.72,1.94,19.55,3.29,29.29,5.14,18.65,3.56,37.29,7.21,55.91,10.98,16.36,3.31,32.67,6.84,49.01,10.26,6.29,1.32,12.09,1.39,16.59-4.55,1.17-1.55,3.96-1.87,6.01-2.76-12.72,14.3-28.41,23.95-46.55,29.75-1.55.5-3.21.65-4.83.96Z"/>
      <path class="cls-9" d="M683.38,586.1c-2.05.89-4.84,1.21-6.01,2.76-4.5,5.94-10.3,5.87-16.59,4.55-16.34-3.42-32.65-6.95-49.01-10.26-18.61-3.77-37.25-7.42-55.91-10.98-9.73-1.86-19.57-3.2-29.29-5.14-13.91-2.78-27.72-6.02-41.62-8.84-20.22-4.09-40.48-8.01-60.73-11.94-6.33-1.23-12.75-2.02-19.02-3.47-3.13-.72-6.02-2.49-9.02-3.78-1.47-5.9-2.94-11.79-4.41-17.69.41-1.44.81-2.88,1.22-4.32-.16,5.24,2.66,8.45,7.44,9.58,9.78,2.32,19.64,4.33,29.49,6.36,3.87.8,7.83,1.16,11.68,2.04,7.46,1.7,14.84,3.76,22.32,5.4,3.2.7,6.58.57,9.84,1.07,7.22,1.1,14.42,2.36,21.63,3.56.65.11,1.39.02,1.95.3,9.85,4.93,20.81,3.73,31.19,5.7,1.45.27,2.87.7,4.32.93,2.76.45,5.57.66,8.31,1.24,3.02.63,5.95,1.68,8.96,2.33,5.76,1.25,11.58,2.19,17.32,3.54,4.66,1.1,9.12,3.53,14.08,1.1.51-.25,1.65.32,2.27.81,4.99,3.91,10.55,5.2,16.77,4.1,1.08-.19,2.3.2,3.42.46,7.68,1.81,15.29,3.95,23.03,5.41,8.82,1.67,17.75,2.74,26.63,4.07,1.14.17,2.47.04,3.39.59,7.72,4.67,16.5,1.15,24.62,3.15,2.05.51,4.95-1.93,7.3-3.28,2.22-1.27,4.23-2.89,6.33-4.36-3.97,5-7.94,10-11.91,14.99Z"/>
      <path class="cls-17" d="M374.05,449.98c-.02-.99-.04-1.98-.05-2.97.33-1,.66-2.01.99-3.01,5.45,1.33,10.86,2.88,16.36,3.93,9.88,1.9,19.81,3.47,29.71,5.27,2.43.44,4.76,1.52,7.19,1.74,12.19,1.13,24.41,2.05,36.61,3.11,1.12.1,2.26.54,3.28,1.04,3.18,1.55,6.24,4.06,9.64.25.47-.52,1.9-.27,2.88-.23,6.53.27,13.05.74,19.57.81,3.61.04,4.67-2.18,2.86-5.23-.57-.96-1.34-1.8-2.4-3.2,1.63-.95,2.97-1.72,4.3-2.49,2.13,3.23,4.26,6.46,5.52,8.37-2.94,3.78-6.59,6.36-6.86,9.25-.49,5.47.71,11.16,1.7,16.67.52,2.93-.57,3.66-2.98,3.69-3.83.04-7.67-.15-11.48.11-1.33.09-2.6,1.23-3.89,1.89-4.44.12-8.94-.18-13.32.43-9.26,1.28-18.45,3.04-27.66,4.6-.93-3.19-2.68-5.41-6.25-5.92-8.98-1.29-17.95-2.69-26.92-4.07-12.39-1.9-25.4-1.84-35.55-10.99-.09-.68-.19-1.37-.28-2.05-.35-6.2-.63-12.41-1.12-18.61-.07-.84-1.2-1.6-1.85-2.4Z"/>
      <path class="cls-17" d="M505,449c-1.33.77-2.66,1.55-4.3,2.49,1.06,1.4,1.82,2.24,2.4,3.2,1.81,3.05.75,5.27-2.86,5.23-6.53-.07-13.05-.54-19.57-.81-.98-.04-2.41-.29-2.88.23-3.41,3.81-6.46,1.3-9.64-.25-1.02-.5-2.16-.94-3.28-1.04-12.2-1.06-24.41-1.98-36.61-3.11-2.43-.22-4.77-1.3-7.19-1.74-9.9-1.79-19.84-3.36-29.71-5.27-5.5-1.06-10.91-2.61-16.36-3.93-.34-.34-.69-.68-1.03-1.02.02-1.32.04-2.65.05-3.97.99-2,1.98-4,2.98-6,10.86-1.64,21.72-3.34,32.6-4.91,9.87-1.43,19.72-3.23,29.65-3.95,12.07-.88,24.2-.92,36.31-1.11,10.15-.16,20.3-.03,30.45-.03-.33,8.67-.66,17.33-1,26Z"/>
      <path class="cls-8" d="M1032.5,661.2c-11.08,14.85-22.5,28.6-43.59,29.2-14.81.42-26.67-4.38-36.88-14.68-6.94-7-14.99-13.08-18.09-23.05-1.3-4.19-2.41-8.44-3.61-12.66,1.68,1.51,3.36,3.03,5.05,4.54-.27.45-.54.91-.81,1.36,3.58.45,7.21.66,10.72,1.4,8.21,1.74,16.33,3.92,24.56,5.61,13.1,2.69,26.21,5.41,39.4,7.55,7.32,1.19,14.71,5.73,22.28.64.21-.14.65.06.98.09Z"/>
      <path class="cls-9" d="M1039.16,618.89c3.62,4.57,2.88,9.91,2.69,15.15-2.32.05-4.66-.02-6.97.18-10.14.88-20.25,2.34-30.4,2.62-10.43.3-20.89-.37-31.33-.9-8.58-.43-17.15-1.2-25.71-1.97-5.75-.51-11.48-1.29-17.22-1.94.32-10.57,4.33-19.54,11.7-27.06,1.6-.07,3.26-.46,4.78-.15,14.65,2.97,29.27,6.09,43.91,9.09,9.51,1.95,18.99,4.41,28.6,5.42,6.53.69,13.5,5.91,19.96-.44Z"/>
      <path class="cls-5" d="M930.21,632.04c5.74.66,11.47,1.43,17.22,1.94,8.56.77,17.13,1.53,25.71,1.97,10.43.53,20.9,1.2,31.33.9,10.15-.29,20.27-1.75,30.4-2.62,2.31-.2,4.65-.13,6.97-.18,0,.99,0,1.99,0,2.98-.93,4.35-1.86,8.69-2.79,13.04-2.19,3.71-4.37,7.43-6.56,11.14-.33-.04-.76-.23-.97-.09-7.56,5.09-14.96.55-22.28-.64-13.2-2.14-26.3-4.86-39.4-7.55-8.22-1.69-16.34-3.86-24.56-5.61-3.51-.75-7.14-.95-10.72-1.4.27-.45.54-.91.81-1.36-1.68-1.51-3.37-3.03-5.05-4.54-.04-2.66-.08-5.31-.12-7.97Z"/>
      <path class="cls-17" d="M1039.16,618.89c-6.46,6.35-13.43,1.13-19.96.44-9.62-1.02-19.09-3.48-28.6-5.42-14.64-3-29.26-6.12-43.91-9.09-1.52-.31-3.18.08-4.78.15,2.7-3.01,5.4-6.01,8.09-9.02,3.66.68,7.31,1.76,11,1.95,6.31.33,12.66.11,18.98.12,1.35,2.8,2.69,2.8,4.03,0,10.58-.02,21.15.08,31.72-.13,2.28-.05,4.54-1.21,6.81-1.86,5.29,6.17,10.65,12.27,15.78,18.57.81.99.58,2.83.83,4.28Z"/>
      <path class="cls-4" d="M377.3,473.04c10.16,9.15,23.16,9.09,35.55,10.99,8.97,1.37,17.93,2.78,26.92,4.07,3.58.51,5.32,2.73,6.25,5.92-1.11.68-2.2,1.41-3.35,2.03-1.87,1.01-3.78,1.96-5.67,2.94-7,2.06-14.17,3.65-20.94,6.29-7.46,2.91-14.56,6.75-21.79,10.24-.53.26-.84.98-1.25,1.49-.41,1.44-.81,2.88-1.22,4.32-1.19-3.26-2.61-6.47-3.52-9.81-2.89-10.57-5.54-21.2-8.39-31.77-.62-2.29-1.7-4.46-2.57-6.69Z"/>
      <path class="cls-4" d="M474.08,328.21c4.97-1.09,9.94-2.17,14.91-3.26,6.99-1.97,13.99-3.94,20.98-5.91-.72,4.55-5.17,3.32-7.77,4.96-2.54,1.6-5.91,2.35-7.76,4.47-5.99,6.91-8.78,15.39-10.55,24.28-.25,1.24-1.9,2.2-2.9,3.29-8.39-1.86-16.79-3.67-25.16-5.6-5.95-1.37-11.83-3.08-17.82-4.26-1.97-.39-4.58-.23-6.19.79-5.13,3.24-10.12,6.77-14.8,10.63-5.54,4.57-10.71,9.59-16.04,14.42-.4-.06-.79-.11-1.19-.17.77-1.45,1.28-3.14,2.36-4.3,10.67-11.38,22.74-21.08,37.23-26.96,10.66-4.33,21.9-7.21,32.85-10.8.71-.23,1.23-1.03,1.84-1.57Z"/>
      <path class="cls-8" d="M979.98,598.04c-6.33-.01-12.67.21-18.98-.12-3.69-.19-7.33-1.27-11-1.95,3.91-3.62,7.36-7.99,11.82-10.73,19-11.7,39.62-8.59,55.98,5.89,1.7,1.51,3.17,3.27,4.75,4.92-2.27.65-4.53,1.81-6.81,1.86-10.57.21-21.15.12-31.72.13-1.34,0-2.69,0-4.03,0Z"/>
      <path class="cls-22" d="M615.52,169.99c-1.48,2.93-2.96,5.86-5.13,10.17-1.78-3.02-3.01-5.13-4.25-7.23-.38-1.3-.76-2.6-1.13-3.9-.32-.39-.64-.79-.96-1.18-2.37-8.83-7.96-15.75-13.58-22.62-5.91-7.22-2.75-18.82,6.24-20.58,2.89-.57,7.2,1.48,9.51,3.73,3.29,3.2,5.33,7.68,7.9,11.61.57.84,1.14,1.68,1.7,2.52.03,1.48.07,2.97.11,4.45.32.77.63,1.55.95,2.32,0,4.74,0,9.47,0,14.21-.32.51-.63,1.02-.94,1.53-.14,1.65-.27,3.31-.41,4.96Z"/>
      <path class="cls-18" d="M631.08,186.97c3.25-5.24,6.51-10.48,9.76-15.72.41-.67.85-1.32,1.27-1.97,3.86-1.72,7.56-4.1,11.6-5.04,9.82-2.28,13.96,1.93,12.2,11.7,0,0,.02,0,.02,0-.98.68-1.97,1.36-2.95,2.04-4,1.16-8.03,2.22-11.99,3.51-6.35,2.07-12.65,4.29-18.97,6.44-.32-.32-.63-.64-.95-.97Z"/>
      <path class="cls-4" d="M702.99,558.92c.39-1.97.77-3.94,1.31-6.68-1.93-.68-4.12-1.45-6.3-2.22-7.75-3.09-15.53-6.08-23.23-9.3-3.03-1.27-5.85-3.04-8.76-4.57,15-.11,29.99-.23,44.99-.34.66.17,1.33.34,1.99.51-2.72,7.13-5.41,14.26-8.21,21.35-.22.57-1.18.85-1.8,1.26Z"/>
      <path class="cls-14" d="M535,190c1.87,5.14,1.43,5.95-3.5,5.98-3.84.02-8.31,1.16-9.12-5.49-1.5,1.3-2.46,2.13-3.75,3.24-.4-1.49-.76-2.81-1.45-5.4-.62,1.94-.9,2.8-1.18,3.67-3.41-2.93-7.05-5.65-10.11-8.91-1.17-1.25-3.17-3.67.3-5.7.84-.49.12-3.63.12-6.81.51-.15,2.42-1.45,3.88-1.06,8.15,2.2,15.39,5.57,15.4,16.07,1.76.73,5.62-.33,3.87,3.64,2.07.29,3.8.53,5.54.78Z"/>
      <path class="cls-7" d="M713,536.3c-.66-.17-1.33-.34-1.99-.51,2.39-.93,4.78-2.67,7.18-2.68,32.21-.18,64.43-.08,96.65-.21,2.08,0,4.16-1.28,6.23-1.97,2.34,1.61,4.68,3.22,7.02,4.83-18.93.12-37.86.27-56.79.36-19.43.09-38.87.12-58.3.18Z"/>
      <path class="cls-22" d="M500.02,232.05c-.97-.46-1.94-.91-2.9-1.37-2.77-2.9-6.56-5.6-4.41-10.32,2.74-6.02,7.89-8,14.27-7.17,1.88,1.31,3.84,2.51,5.62,3.94,4.7,3.77,4.68,7.63-.22,10.98-2.26,1.54-4.9,2.52-7.37,3.76-1.66.06-3.32.12-4.99.18Z"/>
      <path class="cls-4" d="M399.79,371.84c.4.06.79.11,1.19.17-1.96,3.13-4.04,6.18-5.85,9.4-3.46,6.15-6.76,12.39-10.12,18.6-1.77,3.57-4.36,6.97-5.13,10.74-1.5,7.31-1.98,14.83-2.88,22.26-.99,2-1.98,4-2.98,6-1.37-20.83,6.39-38.97,16.92-56.17,2.44-3.98,5.87-7.35,8.85-10.99Z"/>
      <path class="cls-18" d="M563,181.02c-.03-.35-.07-.7-.1-1.05.05-1.44.37-2.93.09-4.3-1.15-5.64,1.12-8.38,6.87-7.63,3.68.48,6.92,1.99,8.25,5.93-.3,5.52-1.64,6.51-11.19,7.52,2.92.41,4.71.66,6.5.91-.04.54-.09,1.08-.13,1.62-2.75-.34-5.5-.69-8.24-1.03-.68-.66-1.36-1.31-2.04-1.97Z"/>
      <path class="cls-4" d="M374.05,449.98c.64.8,1.78,1.55,1.85,2.4.49,6.19.77,12.4,1.12,18.61-1-4.02-2.27-8-2.91-12.08-.46-2.9-.06-5.94-.05-8.92Z"/>
      <path class="cls-21" d="M1039.06,650.06c.93-4.35,1.86-8.69,2.79-13.04-.93,4.35-1.86,8.69-2.79,13.04Z"/>
      <path class="cls-24" d="M373.96,442.98c.34.34.69.68,1.03,1.02-.33,1-.66,2.01-.99,3.01-.01-1.34-.02-2.69-.04-4.03Z"/>
      <path class="cls-2" d="M615.82,142.52c-.57-.84-1.14-1.68-1.7-2.52.57.84,1.14,1.68,1.7,2.52Z"/>
      <path class="cls-2" d="M616.87,149.28c-.32-.77-.63-1.55-.95-2.32.32.77.63,1.55.95,2.32Z"/>
      <path class="cls-20" d="M831.01,535.91c.66,0,1.32,0,1.98,0-.66,0-1.32,0-1.98,0Z"/>
      <path class="cls-2" d="M615.92,165.03c.31-.51.63-1.02.94-1.53-.31.51-.63,1.02-.94,1.53Z"/>
      <path class="cls-2" d="M604.05,167.85c.32.39.64.78.96,1.18-.32-.39-.64-.78-.96-1.18Z"/>
      <path class="cls-8" d="M666.02,536.13c2.91,1.54,5.73,3.31,8.76,4.57,7.69,3.22,15.48,6.22,23.23,9.3-.61,2.25-1.23,4.5-1.84,6.75-2.76-.99-5.47-2.2-8.31-2.91-3.03-.76-6.18-1.04-9.27-1.56-1.95-.33-4.08-.32-5.81-1.14-4.57-2.17-8.45-6.24-14.3-1.91-1.32.98-5.47-1.56-8.13-2.86-.97-.48-1.41-2.06-2.34-3.55-1,1.17-1.66,2.04-2.42,2.82-1.96,2.04-3.47,1.61-4.46-.93-1.99-5.11-7.14-5.87-10.88-5.27-5.97.95-10.05.84-11.56-5.89-.12-.52-.88-.89-1.58-1.56-5.93,6.26-11.23.77-16.67-.87-15.61-4.71-30.98-10.29-47.5-11.21-2.93-.16-5.79-1.58-8.73-1.81-7.18-.56-14.39-.76-21.58-1.1-.17,0-.33,0-.5.01-4.79.54-11.14-.68-15.5-2.64-1.36-.61-3.04-.5-4.58-.72v4.89c-.47.07-1.8.71-2.51.29-4.06-2.39-7.88-4.35-13.01-4.74-2.56-.2-5.56-1.18-8.58-1.22-4.78-.05-9.57-.5-14.32-1.02-1.42-.15-2.92-.85-4.11-1.69-5.2-3.65-11.08-3.78-17.03-3.45-4.2.23-5.46-1.42-5.49-7.76,1.89-.98,3.8-1.92,5.67-2.94,1.15-.62,2.24-1.35,3.35-2.03,9.22-1.56,18.41-3.32,27.66-4.6,4.38-.61,8.88-.31,13.32-.43,16.31-.07,32.67-.66,48.74,3.04,9.4,2.17,18.82,4.34,28.09,6.98,10.31,2.93,20.47,6.38,30.68,9.64,6.4,2.04,12.77,4.14,19.16,6.21,4.56,7.96,10.52,14.42,19.25,17.9,2.82.78,5.61,2.02,8.47,2.24,8.19.61,16.41.8,24.62,1.15Z"/>
      <path class="cls-7" d="M666.02,536.13c-8.21-.35-16.43-.54-24.62-1.15-2.86-.21-5.65-1.46-8.47-2.23-.92-1.15-1.64-2.57-2.78-3.41-6.54-4.77-12.34-10.12-15.29-17.95-.82-2.18-1.91-4.26-2.87-6.38.32-9.01.64-18.03.96-27.04,9.58,1.01,19.17,1.94,28.74,3.08,4.19.5,6.58-1.05,7.37-5.16l2.99,3.11c3.11,4.27,6.42,8.4,9.28,12.83,6.84,10.59,15.32,18.01,28.88,18.33,9.83.23,18.46-3.23,26.99-7.09,5.26-2.38,9.99-5.93,14.95-8.96,2.23-.5,4.5-.86,6.67-1.54,3.31-1.04,6.46-2.9,9.83-3.35,16.21-2.17,32.29-2.94,46.37,7.81,4.46,5.99,8.84,12.05,13.4,17.96,2.69,3.48,5.68,6.72,8.53,10.07,1.38,1.97,2.75,3.93,4.13,5.9-2.08.69-4.15,1.96-6.23,1.97-32.22.13-64.43.03-96.65.21-2.4.01-4.79,1.75-7.18,2.68-15,.11-29.99.23-44.99.34Z"/>
      <path class="cls-25" d="M816.94,525.04c-2.85-3.35-5.84-6.59-8.53-10.07-4.57-5.91-8.95-11.96-13.4-17.96-2.33-3.29-4.67-6.59-6.73-9.5,11.53-2.2,22.83-4.13,34.03-6.56,10.69-2.32,21.62-4.38,31.08-10.23,10.53-6.52,21.27-12.93,28.71-23.32,3.94-5.5,9.09-10.53,11.51-16.64,4.24-10.67,7.04-21.94,9.98-33.08,1.62-6.15,2.51-12.52,3.35-18.84.65-4.91.86-9.89.99-14.84.17-6.73-.09-13.48.2-20.21.1-2.47,1.14-4.93,1.92-7.34.5-1.55,1.3-3,1.97-4.49,4.75-3.38,9.51-6.77,14.26-10.15,1.91,1.08,3.83,2.17,5.74,3.25.41.29.81.57,1.22.86.29-.05.55.03.76.23.1.65,0,1.76.32,1.89,5.44,2.22,5.02,6.63,4.78,11.36-.34,6.63.18,13.31-.17,19.94-.3,5.71-1.5,11.38-1.92,17.09-.42,5.82-.37,11.68-.5,17.53-.01.48.44,1,.34,1.43-1.29,5.87-2.49,11.77-4.02,17.58-1.59,6.04-3.58,11.98-5.24,18-.27.97.63,2.23.44,3.25-.35,1.87-.85,3.82-1.77,5.46-1.19,2.1-3.01,3.85-4.3,5.91-1.4,2.23-2.32,4.77-3.77,6.95-2.82,4.25-2.69,7.92,1.22,11.47,1.13,1.02,1.68,2.69,2.49,4.06-.65-.1-1.49.04-1.93-.32-10.57-8.72-21.58-6.59-32.33-.82-3.08,1.66-6.51,4.94-7.32,8.11-2.45,9.56,2.95,20.01,11.67,24.97-2.48-.67-5.35-.76-7.37-2.11-6.06-4.06-6.18-4-11.09,1.25-1.78,1.9-4.79,2.81-7.39,3.75-4.58,1.66-9.24,3.14-13.95,4.43-3.23.89-6.58,1.34-9.88,1.98-.16.03-.4-.09-.49-.01-5.82,4.85-12.92,3.37-19.61,4.31-6.57.92-6.99,2.61-4.84,9.31.19.6-.28,1.41-.45,2.12Z"/>
      <path class="cls-7" d="M891.99,500.02c-8.72-4.97-14.11-15.41-11.67-24.97.81-3.17,4.24-6.45,7.32-8.11,10.75-5.77,21.76-7.9,32.33.82.44.36,1.28.23,1.93.32,0,0,.03-.03.03-.03.98,1.67,1.97,3.35,2.95,5.02,1.96,6.03,3.42,12.1.83,18.32-4.35,10.45-17.17,18.03-29.74,10.65-1.28-.75-2.65-1.35-3.98-2.03Z"/>
      <path class="cls-7" d="M924.9,473.07c-.98-1.67-1.97-3.35-2.95-5.02,2.83.59,4.43,1.9,2.95,5.02Z"/>
      <path class="cls-16" d="M880.06,317.05c0,.56,0,1.12,0,1.68-.17,1.11-.35,2.21-.52,3.32.07,6.3.13,12.61.2,18.91-.1,3.5-.2,7.01-.31,10.51-.5.46-1,.92-1.5,1.38-4.41.43-9.14-.03-13.17,1.45-14.48,5.28-23.83,21.8-15.48,39.07,4.89,10.13,16.31,17.59,28.55,14.88.35,2.59.69,5.18,1.04,7.77-.72,3.18-1.45,6.37-2.17,9.55-.63.9-1.32,1.76-1.87,2.7-5.25,9.02-11.99,16.26-22.53,19.01-.81.4-1.63.81-2.44,1.21-.68.33-1.35.67-2.03,1-16.32.11-32.64.28-48.96.31-6.48.01-12.96-.26-19.45-.4-3.49-3.44-6.57-7.5-10.56-10.23-18.46-12.65-39.33-14.83-60.85-12.5-10.92,1.18-21.75,2.94-32.42-.75-10.05-3.48-16.33-10.83-19.75-20.76,14.29.25,28.57.45,42.86.78,9.3.21,18.59.84,27.88.9,24.08.15,48.16.07,72.25.11,4.02,0,5.86-2.51,5.98-5.93.12-3.76-2.63-4.9-6.08-4.98-9.63-.24-19.25-.78-28.87-.9-35.27-.44-70.55-.72-105.83-1.14-4.29-.05-8.58-.6-12.88-.91-.59-.46-1.18-.92-1.77-1.39-1.05-2.75-1.5-5.97-3.25-8.15-5.14-6.36-10.79-12.3-16.25-18.41,10.2-1.05,20.39-2.22,30.61-3.11,10.07-.88,20.17-1.49,30.26-2.17,17.99-1.21,36.03-4,53.84,1.27,3.12.92,4.38.19,4.37-3.03-.02-5,.14-9.99.06-14.99-.07-4.22-2.72-7.13-6.42-7.87-7.44-1.49-15.05-3.15-22.56-3-23.05.45-46.09,1.65-69.13,2.68-21.88.98-43.74,2.15-65.62,3.12-6.29.28-7.94,1.52-8.21,7.87-.19,4.32,0,8.66.02,12.99-14.87.95-28.66-2.2-41-10.81-.04-12.03-.07-24.07-.11-36.1-.03-13.67-.06-27.34-.09-41,.11-7.45,1.3-14.53,6.94-20.06,3.44,2.92,6.56,6.38,10.38,8.65,9.21,5.45,18.96,9.74,29.91,10.33,10.26,0,20.52.01,30.77.02,1.78.02,3.67.41,5.31-.06,1.69-.48,3.15-1.79,4.71-2.73,32.41.02,64.82.04,97.23.05,1.23,1.54,2.5,3.05,3.69,4.62,3.16,4.17,6.72,8.12,9.35,12.61,6.74,11.55,13.03,23.21,24.62,31.07,18.33,12.43,38.27,16.96,60.01,13.54,31.05-4.89,43.21-37.85,34.42-63.65-4.32-12.68-12.52-23.51-26.07-30.81,7.15-.52,12.96-.95,18.77-1.37.68-.05,1.37-.1,2.05-.15.39.3.73.74,1.17.87,11.86,3.52,21.18,10.15,26.4,21.69,1.68,3.71,2.97,7.6,4.44,11.41.03,7.64.06,15.28.09,22.92,0,9.04-.02,18.09-.03,27.13ZM582,284.14c-3.83,5.4-7.73,10.46-11.04,15.87-.81,1.33-.38,4.65.73,5.61,1.32,1.14,4.3,1.49,6.01.8,4.75-1.9,6.56-6.52,6.98-11.07.34-3.69,1.99-8.33-2.68-11.21ZM606.96,295.56c.11-4.7-4.28-9.78-7.33-9.37-1.3.17-3.1,1.77-3.41,3.03-.69,2.79,4.68,9.01,7.34,8.58,1.47-.24,2.74-1.78,3.4-2.25ZM877.85,268.35c-.16-.07-.32-.14-.48-.21v49.52c.16,0,.32,0,.48,0v-49.31Z"/>
      <path class="cls-7" d="M879.53,322.06c.17-1.11.35-2.21.52-3.32,11.65.1,23.32-.02,34.96.41,3.78.14,7.5,1.73,11.26,2.66-4.75,3.38-9.51,6.77-14.26,10.15-9.99,3-19.98,6-29.97,9,0,0,0,0,0,0,0-5.05.15-10.11-.13-15.14-.07-1.3-1.54-2.52-2.37-3.77Z"/>
      <path class="cls-6" d="M933.23,325.92c-.41-.29-.81-.57-1.22-.86.41.29.81.57,1.22.86Z"/>
      <path class="cls-17" d="M613.67,514.85c-6.38-2.07-12.76-4.17-19.16-6.21-10.21-3.26-20.37-6.7-30.68-9.64-9.28-2.64-18.69-4.82-28.09-6.98-16.07-3.7-32.42-3.11-48.74-3.04,1.3-.66,2.56-1.8,3.89-1.89,3.81-.26,7.65-.07,11.48-.11,2.42-.03,3.51-.76,2.98-3.69-.99-5.51-2.19-11.2-1.7-16.67.26-2.89,3.91-5.47,6.86-9.25-1.26-1.91-3.39-5.14-5.52-8.37.33-8.67.66-17.33,1-26,1.34,0,2.68-.01,4.03-.02,4.44,0,8.88,0,13.31.02,4.84.01,9.68.03,14.52.05,2.8,7.47,6.85,14.12,13.57,18.64,4.01,2.7,8.42,4.82,12.64,7.2-1.53.81-3.05,1.62-5.35,2.85,5.2,3.36,9.82,7.32,15.15,9.56,9.06,3.8,18.51,6.72,27.92,9.61,3.95,1.22,5.54-.91,5.35-5.1-.1-2.24,1.23-4.54,1.91-6.81.07,13.31.07,26.62.27,39.93.03,1.79,1.03,3.57,1.58,5.36-.09.25-.07.5.07.73.9,3.28,1.8,6.56,2.7,9.85Z"/>
      <path class="cls-8" d="M510.02,422.98c-1.34,0-2.68.01-4.03.02-10.15,0-20.3-.13-30.45.03-12.11.2-24.24.23-36.31,1.11-9.93.72-19.78,2.52-29.65,3.95-10.87,1.57-21.73,3.27-32.6,4.91.9-7.43,1.38-14.95,2.88-22.26.77-3.77,3.36-7.17,5.13-10.74,6.38.85,12.79,1.47,19.12,2.6,9.03,1.61,18.08,3.24,26.96,5.51,6.72,1.72,14.21-2.86,20.36,2.76.37.34,1.4.3,1.94.04,5.73-2.77,11.68-4.7,15.44-10.91,3.02-5,6.01-10.88,12.43-12.86,6.59-2.04,11.63-5.09,12.04-13.06.19-3.73,1.78-7.39,2.74-11.07,4.67,1.66,9.33,3.33,14,4.99-.33,1.1-.89,2.18-.96,3.29-.52,8.49,1.31,17.33-3.92,25.1-.32.47-.03,1.31-.14,1.96-.6,3.55-1.02,7.15-1.91,10.63-.99,3.89-2.41,7.67-3.82,12.02,2.47,0,4.48-.25,6.38.08,1.52.27,2.92,1.24,4.38,1.9Z"/>
      <path class="cls-21" d="M979.98,598.04c1.34,0,2.69,0,4.03,0-1.34,2.8-2.69,2.8-4.03,0Z"/>
      <path class="cls-5" d="M496.01,362.99c-.96,3.69-2.54,7.35-2.74,11.07-.41,7.97-5.45,11.02-12.04,13.06-6.42,1.99-9.41,7.87-12.43,12.86-3.76,6.22-9.71,8.15-15.44,10.91-.53.26-1.57.3-1.94-.04-6.14-5.62-13.64-1.04-20.36-2.76-8.87-2.27-17.93-3.91-26.96-5.51-6.33-1.13-12.74-1.75-19.12-2.6,3.37-6.2,6.67-12.44,10.12-18.6,1.81-3.21,3.89-6.27,5.85-9.4,5.33-4.83,10.5-9.85,16.04-14.42,4.68-3.86,9.67-7.39,14.8-10.63,1.61-1.02,4.22-1.17,6.19-.79,5.99,1.18,11.87,2.88,17.82,4.26,8.37,1.93,16.77,3.74,25.16,5.6,1.43.85,2.78,1.87,4.29,2.53,3.54,1.56,7.15,2.96,10.73,4.43Z"/>
      <path class="cls-17" d="M496.01,362.99c-3.58-1.46-7.19-2.86-10.73-4.43-1.51-.67-2.86-1.68-4.29-2.53,1-1.09,2.65-2.05,2.9-3.28,1.77-8.89,4.55-17.37,10.55-24.28,1.85-2.13,5.22-2.87,7.76-4.47,2.6-1.64,7.05-.41,7.77-4.96,1.67-.69,3.35-1.38,5.02-2.07,3.66-1.02,7.32-2.03,10.99-3.05,3.33-.65,6.67-1.3,10-1.94.04,12.03.07,24.07.11,36.1-.07,9.62-.14,19.25-.21,28.87-1.22-.4-2.45-.78-3.66-1.21-7.4-2.58-14.8-5.17-22.2-7.76-4.67-1.66-9.33-3.33-14-4.99Z"/>
      <path class="cls-7" d="M613.67,514.85c-.9-3.28-1.8-6.56-2.7-9.85.34,0,.68,0,1.01,0,.96,2.12,2.05,4.2,2.87,6.38,2.95,7.83,8.75,13.18,15.29,17.95,1.15.84,1.87,2.26,2.78,3.41-8.73-3.48-14.69-9.93-19.25-17.9Z"/>
      <path class="cls-25" d="M882.04,340.96c9.99-3,19.98-6,29.97-9-.67,1.49-1.47,2.95-1.96,4.49-.78,2.41-1.82,4.87-1.92,7.34-.29,6.73-.02,13.47-.2,20.21-.13,4.95-.34,9.94-.99,14.84-.84,6.32-1.73,12.69-3.35,18.84-2.94,11.14-5.74,22.41-9.98,33.08-2.43,6.11-7.57,11.14-11.51,16.64-7.44,10.39-18.18,16.8-28.71,23.32-9.45,5.85-20.38,7.91-31.08,10.23-11.2,2.43-22.51,4.36-34.03,6.56,2.06,2.91,4.4,6.2,6.73,9.5-14.08-10.75-30.16-9.98-46.37-7.81-3.36.45-6.52,2.32-9.83,3.35-2.17.68-4.44,1.04-6.67,1.54.09-.69-.06-1.69.33-2.01,1.68-1.37,3.53-2.54,6.18-4.39-4.41-.63-7.78-2-10.71-1.35-6.42,1.43-13.63-1.49-19.45,3.49-.54.46-2.29-.49-3.48-.79,6.56-5.41,8.63-10.9,6.07-16.06,6.94-4.75,14.81-2.73,22.34-2.95,16.4-.47,32.83-.31,49.2-1.19,9.91-.53,19.76-2.47,29.62-3.92,2.27-.33,4.44-1.74,6.68-1.81,10-.32,18.19-5.53,26.76-9.64,1.1-.53,1.45-2.62,2.15-3.98.68-.33,1.35-.67,2.03-1,.81-.4,1.63-.81,2.44-1.22,10.54-2.75,17.28-9.99,22.53-19.01.55-.94,1.24-1.8,1.87-2.7.78-.08,2.19,0,2.26-.28,1.12-4.26,2.88-8.55,2.93-12.85.29-23.82.16-47.65.17-71.48Z"/>
      <path class="cls-25" d="M847.81,449.5c-.7,1.37-1.05,3.46-2.15,3.98-8.57,4.11-16.76,9.32-26.76,9.64-2.24.07-4.41,1.48-6.68,1.81-9.86,1.45-19.7,3.39-29.62,3.92-16.37.88-32.8.72-49.2,1.19-7.52.22-15.39-1.8-22.34,2.95-1.37-5.95-5.95-8.59-11.18-9.84-5.33-1.28-10.2.94-12.62,5.63-2.23,4.33-2.93,9.44-4.31,14.21-.99-.95-2.14-1.8-2.94-2.89-1.11-1.52-2.1-4.7-2.9-4.63-7.74.74-16.36-4.12-23.16,3.25-.34.37-1.27.19-1.92.27-1-1.04-2-2.07-2.99-3.1-.77-1.22-1.37-2.6-2.33-3.64-9.45-10.29-20.79-17.36-34.6-20.17-.37-.02-.74-.04-1.11-.06,0-.68-.01-1.35-.02-2.03,53.83-.01,107.66-.02,161.49-.07,2.31,0,4.62-.33,6.94-.51,6.48.14,12.96.41,19.45.4,16.32-.04,32.64-.2,48.96-.31Z"/>
      <path class="cls-25" d="M652.04,478.99c.65-.08,1.58.1,1.92-.27,6.8-7.37,15.41-2.51,23.16-3.25.8-.08,1.79,3.11,2.9,4.63.8,1.09,1.95,1.94,2.94,2.89,1.54,8.09,7.16,11.64,14.81,9.19,2.49-.8,4.83-2.07,7.24-3.12,1.19.3,2.94,1.25,3.48.79,5.82-4.99,13.03-2.07,19.45-3.49,2.93-.65,6.3.72,10.71,1.35-2.65,1.85-4.49,3.02-6.18,4.39-.4.32-.24,1.32-.33,2.01-4.96,3.03-9.69,6.58-14.95,8.96-8.52,3.86-17.16,7.32-26.99,7.09-13.57-.32-22.05-7.74-28.88-18.33-2.86-4.43-6.17-8.56-9.28-12.83Z"/>
      <path class="cls-7" d="M612.1,452.08c13.82,2.81,25.16,9.88,34.6,20.17.96,1.05,1.56,2.42,2.33,3.64-.78,4.11-3.17,5.66-7.37,5.16-9.56-1.15-19.16-2.07-28.73-3.08-.28-8.63-.56-17.25-.84-25.88Z"/>
      <path class="cls-7" d="M612.1,452.08c.28,8.63.56,17.25.84,25.88-.32,9.01-.64,18.03-.96,27.04-.34,0-.68,0-1.01,0-.14-.23-.16-.47-.07-.73.04-17.42.07-34.84.1-52.26.37.02.74.04,1.11.06Z"/>
      <path class="cls-11" d="M779.4,449.41c-2.31.18-4.62.51-6.94.51-53.83.04-107.66.05-161.49.07-.58,0-1.17,0-1.75-.01-15.05-.36-30.1-.73-45.15-1.09-4.23-2.38-8.63-4.5-12.64-7.2-6.72-4.52-10.77-11.17-13.57-18.64-.62-4.71-1.63-9.42-1.77-14.15-.31-10.64-.18-21.3-.22-31.95.07-9.62.14-19.25.21-28.87,12.35,8.61,26.14,11.76,41,10.81,1.35,5.38,5.02,7.24,10.28,7.12,10.81-.25,21.63-.32,32.44-.46,2.16-.39,4.32-.77,6.48-1.16,1.2.25,2.39.5,3.59.74,5.45,6.11,11.11,12.05,16.25,18.41,1.76,2.17,2.21,5.4,3.25,8.15-20.69,0-41.37,0-62.06,0,.03.19.06.38.09.58l11.62,2.17c-.65.13-1.29.37-1.94.39-4.98.16-9.99,0-14.94.53-2.91.3-5.39,1.98-4.78,5.66.57,3.43,2.33,4.31,6,3.8,6.72-.93,13.55-1.33,20.34-1.31,15.94.04,31.88.43,47.81.76,1.45.03,2.88.59,4.32.91,3.42,9.93,9.71,17.28,19.75,20.76,10.67,3.7,21.49,1.94,32.42.75,21.51-2.33,42.39-.15,60.85,12.5,3.98,2.73,7.06,6.78,10.56,10.23ZM587.11,368.22c0,.16,0,.32,0,.48h22.73c0-.16,0-.32,0-.48h-22.73Z"/>
      <path class="cls-22" d="M748.98,209.98c1.05,1.16,2.01,2.44,3.18,3.47,2.55,2.25,5.21,4.37,7.82,6.54,1.85,4.26,3.7,8.52,5.55,12.78-.49,4.01-.72,8.07-1.53,12.01-2.7,13.24-13.57,22.12-26.94,22.25-5.31.05-10.61.1-15.92.15-32.41-.02-64.82-.04-97.23-.06-13.8-.04-27.59,0-41.39-.15-12.63-.13-24.87-11-26.82-23.6.1-4.46.19-8.91.29-13.37,2.9-5.53,5.8-11.07,8.17-15.58,1.79-.8,3.03-1.11,3.96-1.82,1.37-1.04,2.53-2.36,3.78-3.56,1.04.16,2.11.55,3.12.43,3.44-.4,6.85-1.41,10.27-1.42,51.57-.09,103.13-.05,154.7-.04,2.56,1.16,5,1.5,7.02-1.04.66,0,1.32.01,1.98.02,0,.99-.01,1.98-.02,2.98ZM728.84,239.19c.46.34.92.68,1.37,1.01.19-.42.38-.83.56-1.25-.4-1.45-.81-2.89-1.21-4.34-1.86-.46-3.72-1.33-5.57-1.33-23.58.01-47.15.13-70.73.29-1.25,0-2.5.57-3.75.88-6.15-.05-12.31-.29-18.45,0-1.3.06-2.5,2.03-3.75,3.12,1.23,1.12,2.3,2.6,3.74,3.25,1.26.57,2.95.3,4.45.27,21.8-.51,43.6-1.07,65.4-1.55,9.3-.2,18.6-.24,27.91-.35,0,0,.04,0,.04,0ZM599.04,240.93c-2.53,4.11-.7,7.08,2.64,10.05,1.01-1.76,1.9-3.3,2.78-4.82,1.63-.09,3.17-.17,5.8-.31-2.03-2.9-3.53-5.04-4.76-6.8-2.69.8-4.61,1.37-6.52,1.94.79-1.18,1.44-2.48,2.39-3.51,4.06-4.42,3.84-11.3-.59-15.53-4.69-4.47-11.04-4.2-15.75.68-4.31,4.47-4.28,10.52.02,14.92,1.05,1.08,1.97,2.29,2.95,3.44-.6.09-1.31.45-1.78.24-5.63-2.49-6.87-1.84-8.58,4.82h4.74c.98,1.69,1.87,3.23,2.93,5.05,2.84-3.2,5.53-5.97,2.63-10.18,3.7,0,7.4,0,11.1.01Z"/>
      <path class="cls-11" d="M721.15,267.18c5.31-.05,10.61-.1,15.92-.15,13.36-.13,24.24-9,26.94-22.25.8-3.94,1.03-8.01,1.53-12.01,1.15,0,2.29,0,3.44,0,2.83.05,5.66.13,8.49.14,22.82.1,45.64.18,68.47.27-5.81.42-11.62.85-18.77,1.37,13.55,7.3,21.75,18.13,26.07,30.81,8.78,25.8-3.37,58.76-34.42,63.65-21.74,3.42-41.68-1.11-60.01-13.54-11.59-7.86-17.87-19.52-24.62-31.07-2.62-4.49-6.19-8.44-9.35-12.61-1.19-1.57-2.46-3.08-3.69-4.62Z"/>
      <path class="cls-22" d="M629.87,365.13c-1.2-.25-2.39-.5-3.59-.75-2.16.39-4.32.77-6.48,1.16-10.81.14-21.63.22-32.44.46-5.26.12-8.93-1.74-10.28-7.12-.02-4.33-.21-8.67-.02-12.99.27-6.35,1.92-7.59,8.21-7.87,21.88-.96,43.74-2.14,65.62-3.12,23.04-1.03,46.08-2.23,69.13-2.68,7.51-.15,15.12,1.51,22.56,3,3.7.74,6.35,3.64,6.42,7.87.08,4.99-.07,9.99-.06,14.99.01,3.22-1.26,3.95-4.37,3.03-17.81-5.26-35.85-2.48-53.84-1.27-10.09.68-20.18,1.3-30.26,2.17-10.22.89-20.41,2.06-30.61,3.11Z"/>
      <path class="cls-22" d="M655.83,405.17c-1.44-.32-2.88-.88-4.32-.91-15.94-.32-31.87-.72-47.81-.76-6.79-.02-13.62.38-20.34,1.31-3.67.51-5.43-.37-6-3.8-.61-3.67,1.87-5.35,4.78-5.66,4.94-.52,9.96-.36,14.94-.53.65-.02,1.29-.25,1.94-.38,1.99.06,3.98.19,5.97.15,14.26-.29,28.53-.61,42.79-.92,1.46,1.93,2.59,1.92,3.31-.56l.05-.05c4.29.32,8.58.86,12.88.91,35.27.42,70.55.71,105.83,1.14,9.63.12,19.25.66,28.87.9,3.45.09,6.2,1.22,6.08,4.98-.11,3.43-1.95,5.94-5.98,5.93-24.08-.04-48.16.04-72.25-.11-9.3-.06-18.59-.69-27.88-.9-14.28-.33-28.57-.52-42.86-.78Z"/>
      <path class="cls-11" d="M877.81,408.26c-12.24,2.71-23.65-4.76-28.54-14.89-8.35-17.28,1.01-33.79,15.48-39.07,4.03-1.47,8.76-1.02,13.17-1.44-.04,18.47-.07,36.94-.11,55.4Z"/>
      <path class="cls-18" d="M542.83,250.92c3.05-3.37,6.1-6.73,9.15-10.1,1.24.85,2.48,1.7,3.73,2.55,1.95,12.6,14.2,23.47,26.82,23.6,13.8.14,27.59.11,41.39.15-1.56.95-3.02,2.26-4.71,2.74-1.64.46-3.53.07-5.31.06-3.22-.3-6.45-.89-9.67-.85-7.04.1-14.07.53-21.11.83-10.95-.59-20.7-4.88-29.91-10.33-3.83-2.26-6.94-5.73-10.38-8.65Z"/>
      <path class="cls-10" d="M582,284.14c4.67,2.88,3.02,7.52,2.68,11.21-.41,4.55-2.23,9.17-6.98,11.07-1.71.68-4.69.33-6.01-.8-1.11-.95-1.54-4.28-.73-5.61,3.3-5.42,7.2-10.47,11.04-15.87Z"/>
      <path class="cls-16" d="M882.04,340.96c-.01,23.83.12,47.66-.17,71.48-.05,4.3-1.81,8.59-2.93,12.85-.07.27-1.47.2-2.26.28.72-3.18,1.45-6.37,2.17-9.55.37-1.87,1.06-3.74,1.07-5.62.08-15.33.07-30.67,0-46-.02-4.31-.32-8.62-.49-12.93.1-3.5.2-7.01.31-10.51.77,0,1.53,0,2.3,0h0Z"/>
      <path class="cls-15" d="M845.93,233.18c-22.82-.09-45.64-.17-68.47-.27-2.83-.01-5.66-.09-8.49-.14-.68-.78-1.36-1.56-1.57-1.8h69.58c3.22,0,6.44-.07,9.64.11.49.03.9,1.27,1.35,1.95-.68.05-1.37.1-2.05.15Z"/>
      <path class="cls-16" d="M879.43,351.47c.17,4.31.47,8.62.49,12.93.07,15.33.08,30.67,0,46,0,1.87-.7,3.74-1.07,5.62-.35-2.59-.69-5.18-1.04-7.77.04-18.47.07-36.93.11-55.4.5-.46,1-.92,1.5-1.38Z"/>
      <path class="cls-11" d="M647.78,393.68c-14.26.31-28.53.63-42.79.92-1.99.04-3.98-.1-5.97-.15-3.87-.73-7.75-1.45-11.62-2.17-.03-.19-.06-.38-.09-.58,20.68,0,41.37,0,62.06,0,.59.46,1.18.92,1.77,1.38,0,0-.05.05-.05.05-1.1.19-2.21.37-3.31.56Z"/>
      <path class="cls-10" d="M606.96,295.56c-.67.47-1.93,2.01-3.4,2.25-2.66.43-8.03-5.79-7.34-8.58.31-1.26,2.11-2.86,3.41-3.03,3.05-.41,7.45,4.67,7.33,9.37Z"/>
      <path class="cls-3" d="M877.85,268.35v49.31c-.16,0-.32,0-.48,0v-49.52c.16.07.32.14.48.21Z"/>
      <path class="cls-2" d="M881.99,267c0,6.37.1,12.75-.09,19.11-.04,1.29-1.18,2.54-1.81,3.81-.03-7.64-.06-15.28-.09-22.92.66,0,1.33,0,1.99,0Z"/>
      <path class="cls-16" d="M882.03,340.97c-.77,0-1.53,0-2.3,0-.07-6.3-.13-12.61-.2-18.91.83,1.25,2.3,2.47,2.37,3.77.28,5.03.12,10.09.13,15.14Z"/>
      <path class="cls-16" d="M583.12,269.9c7.04-.3,14.07-.73,21.11-.83,3.22-.05,6.44.55,9.67.85-10.26,0-20.52-.01-30.77-.02Z"/>
      <path class="cls-13" d="M852.28,447.28c-.81.41-1.63.81-2.44,1.22.81-.41,1.63-.81,2.44-1.22Z"/>
      <path class="cls-23" d="M740,208.02c-51.57,0-103.13-.04-154.7.04-3.42,0-6.84,1.02-10.27,1.42-1.01.12-2.08-.28-3.12-.43.03-.35.06-.7.09-1.05,1-.33,2-.66,3-.99,52.87-4.52,105.84-.78,158.76-1.95,2.41-.05,5.68-1.17,6.24,2.97Z"/>
      <path class="cls-18" d="M528.63,247.24c.4,1.55.8,3.1,1.21,4.65-2.31,2.35-4.61,4.69-6.92,7.04,0,0,0,0,0,0-3.85,1.27-4.88,4.32-4.99,7.94-.5.43-.95.94-1.5,1.28-1.89,1.17-3.81,2.27-5.71,3.4-1.22-2.54-3.76-5.27-3.42-7.57,1.06-7.13,5.82-12.02,12.36-14.8,2.77-1.18,5.97-1.32,8.98-1.93Z"/>
      <path class="cls-3" d="M555.71,243.37c-1.24-.85-2.48-1.7-3.73-2.55,0-.6.01-1.21.02-1.81.66-1.59,1.28-3.2,1.98-4.77.63-1.43,1.34-2.83,2.02-4.24-.1,4.46-.19,8.91-.29,13.37Z"/>
      <path class="cls-2" d="M517.93,266.86c.11-3.62,1.14-6.67,4.99-7.94-1.64,3.36-3.28,6.73-4.91,10.09-.03-.72-.05-1.43-.08-2.15Z"/>
      <path class="cls-12" d="M575,207c-1,.33-2,.66-3,.99,1-.33,2-.66,3-.99Z"/>
      <path class="cls-15" d="M748.98,209.98c0-.99.01-1.98.02-2.98.91.6,1.82,1.19,3.5,2.3-1.77.34-2.64.51-3.52.68Z"/>
      <path class="cls-5" d="M535.87,376.95c.05,10.65-.08,21.31.22,31.95.14,4.73,1.15,9.43,1.77,14.15-4.84-.02-9.68-.03-14.52-.05-4.44-.01-8.88-.01-13.31-.02-1.46-.66-2.86-1.64-4.38-1.9-1.9-.33-3.91-.08-6.38-.08,1.4-4.35,2.83-8.13,3.82-12.02.89-3.48,1.31-7.08,1.91-10.63.11-.65-.18-1.49.14-1.96,5.23-7.77,3.39-16.61,3.92-25.1.07-1.11.63-2.2.96-3.29,7.4,2.59,14.8,5.18,22.2,7.76,1.21.42,2.44.81,3.66,1.21Z"/>
      <path class="cls-5" d="M564.07,448.88c15.05.36,30.1.73,45.15,1.09-.06,3-.12,6.01-.18,9.01-.68,2.27-2.01,4.58-1.91,6.81.19,4.2-1.4,6.32-5.35,5.1-9.41-2.89-18.86-5.81-27.92-9.61-5.33-2.24-9.94-6.2-15.15-9.56,2.3-1.22,3.83-2.04,5.35-2.85Z"/>
      <path class="cls-16" d="M609.05,458.99c.06-3,.12-6.01.18-9.01.59,0,1.17,0,1.75.01,0,.68.01,1.35.02,2.03-.03,17.42-.07,34.84-.1,52.26-.55-1.78-1.55-3.56-1.58-5.36-.2-13.31-.2-26.62-.27-39.93Z"/>
      <path class="cls-7" d="M705.01,489.05c-2.41,1.05-4.75,2.32-7.24,3.12-7.65,2.45-13.27-1.1-14.81-9.19,1.38-4.77,2.08-9.88,4.31-14.21,2.42-4.69,7.29-6.9,12.62-5.63,5.23,1.25,9.81,3.9,11.18,9.84,2.57,5.17.5,10.65-6.07,16.06Z"/>
      <path class="cls-11" d="M587.11,368.22h22.73c0,.16,0,.32,0,.48h-22.73c0-.16,0-.32,0-.48Z"/>
      <path class="cls-19" d="M619.8,365.55c2.16-.39,4.32-.78,6.48-1.16-2.16.39-4.32.77-6.48,1.16Z"/>
      <path class="cls-7" d="M728.8,239.18c-9.3.11-18.6.14-27.9.35-21.8.48-43.6,1.04-65.4,1.55-1.5.03-3.18.31-4.45-.27-1.44-.65-2.51-2.13-3.74-3.25,1.25-1.09,2.46-3.06,3.75-3.12,6.14-.28,12.29-.04,18.45,0,.15.22.33.41.54.58,1.72.33,3.43.94,5.15.95,12.62.09,25.25.05,37.87.06,11.05,0,22.09-.05,33.14.17.88.02,1.73,1.93,2.59,2.96Z"/>
      <path class="cls-25" d="M588.01,240.99c-.98-1.15-1.9-2.36-2.95-3.44-4.3-4.4-4.33-10.44-.02-14.92,4.7-4.88,11.06-5.15,15.75-.68,4.43,4.23,4.65,11.11.59,15.53-.95,1.03-1.6,2.33-2.39,3.51l.06-.06c-3.7,0-7.4,0-11.1-.01l.06.06ZM599.99,229.69c-3.25-1.99-5.29-4.23-7.03-4.02-1.73.22-3.15,2.89-4.7,4.49,1.7,1.5,3.33,4.07,5.12,4.19,1.69.11,3.55-2.37,6.61-4.66Z"/>
      <path class="cls-7" d="M649.51,234.45c1.25-.31,2.5-.87,3.75-.88,23.58-.16,47.15-.28,70.73-.29,1.86,0,3.72.87,5.57,1.33-1.82.12-3.63.35-5.44.35-24.69.04-49.38.05-74.08.06-.21-.17-.39-.36-.54-.58Z"/>
      <path class="cls-7" d="M650.05,235.03c24.69-.02,49.38-.03,74.08-.06,1.81,0,3.62-.23,5.44-.35.41,1.45.81,2.89,1.21,4.34-.65.08-1.29.16-1.94.23,0,0-.04,0-.04,0-.86-1.03-1.71-2.95-2.59-2.96-11.04-.22-22.09-.16-33.14-.17-12.62,0-25.25.03-37.87-.06-1.72-.01-3.43-.62-5.15-.95Z"/>
      <path class="cls-25" d="M598.98,240.99c1.91-.57,3.83-1.14,6.52-1.94,1.23,1.76,2.74,3.91,4.76,6.8-2.64.14-4.18.22-5.8.31-.88,1.53-1.77,3.06-2.78,4.82-3.34-2.97-5.17-5.95-2.64-10.05,0,0-.06.06-.06.06Z"/>
      <path class="cls-25" d="M587.95,240.92c2.89,4.21.21,6.98-2.63,10.18-1.06-1.82-1.95-3.36-2.93-5.05h-4.74c1.71-6.66,2.95-7.31,8.58-4.82.47.21,1.18-.15,1.78-.25,0,0-.06-.06-.06-.06Z"/>
      <path class="cls-1" d="M728.84,239.19c.65-.08,1.29-.16,1.94-.23-.19.42-.38.83-.56,1.25-.46-.34-.92-.68-1.37-1.01Z"/>
      <path class="cls-11" d="M647.78,393.68c1.1-.19,2.21-.37,3.31-.56-.72,2.48-1.85,2.49-3.31.56Z"/>
      <path class="cls-2" d="M522.92,258.92c2.31-2.35,4.61-4.69,6.92-7.04-.47,1.38-.55,3.2-1.5,4.05-1.5,1.34-3.58,2.03-5.42,2.99Z"/>
      <path class="cls-23" d="M533.27,283.91v-8.83c.15,0,.3,0,.45,0v8.83c-.15,0-.3,0-.45,0Z"/>
      <path class="cls-23" d="M533.2,292.96v-3.73c.19-.02.38-.03.58-.05.07,1.2.13,2.4.2,3.61-.26.06-.52.12-.78.17Z"/>
      <path class="cls-23" d="M533.53,298.63c.07.13.21.27.2.39-.01.12-.17.23-.26.35.02-.25.04-.49.07-.74Z"/>
      <path class="cls-23" d="M599.99,229.69c-3.06,2.3-4.92,4.77-6.61,4.66-1.79-.12-3.42-2.69-5.12-4.19,1.56-1.6,2.98-4.28,4.7-4.49,1.73-.22,3.77,2.03,7.03,4.02Z"/>
    </g>
  </g>
</svg>